<?xml version="1.0" encoding="UTF-8"?>
<!DOCTYPE svg PUBLIC "-//W3C//DTD SVG 1.1//EN" "http://www.w3.org/Graphics/SVG/1.1/DTD/svg11.dtd">
<svg version="1.1" xmlns="http://www.w3.org/2000/svg" xmlns:xlink="http://www.w3.org/1999/xlink" x="0" y="0" width="524" height="497" viewBox="0, 0, 524, 497">
  <defs>
    <linearGradient id="Gradient_1" gradientUnits="userSpaceOnUse" x1="4.217" y1="279.431" x2="519.061" y2="279.431">
      <stop offset="0" stop-color="#DF5030"/>
      <stop offset="1" stop-color="#BD252C"/>
    </linearGradient>
  </defs>
  <g id="Layer_1">
    <path d="M519.061,274.588 C519.061,395.018 409.603,492.655 261.648,492.655 C113.675,492.655 4.217,395.018 4.217,274.588 C4.217,209.3 20.955,148.065 75.354,108.739 C101.561,89.798 133.23,75.174 165.076,68.074 C202.713,59.666 237.171,82.186 273.943,85.658 C309.451,89.002 344.974,71.854 380.066,75.433 C407.176,78.216 438.802,100.57 458.963,117.279 C506.585,156.707 519.061,214.364 519.061,274.588 z" fill="url(#Gradient_1)"/>
    <path d="M215.052,77.24 C228.123,76.038 232.156,71.263 247.337,73.28 C261.648,75.174 273.606,73.304 287.42,71.126 C301.8,68.846 314.188,68.109 328.436,71.351 C339.617,73.895 349.832,79.476 361.717,81.243 C351.414,87.44 329.91,86.463 316.595,89.198 C326.443,97.552 340.462,104.574 351.414,112.576 C333.313,110.887 311.897,109.066 293.162,106.502 C294.632,110.907 298.924,130.311 292.254,133.319 C287.059,135.653 267.068,122.293 262.122,119.969 C248.675,113.641 246.316,110.804 233.675,116.317 C225.579,119.866 216.121,124.051 209.314,129.3 C211.219,114.876 215.506,102.933 221.429,90.374 C207.049,85.477 180.052,81.536 164.627,81.898 C182.41,77.171 202.42,74.984 221.746,76.698" fill="#4E6D3E"/>
    <path d="M215.341,80.388 C221.054,79.865 225.198,78.671 228.894,77.698 C232.609,76.723 235.848,75.957 240.437,75.951 C242.328,75.951 244.451,76.085 246.92,76.414 C251.221,76.983 255.321,77.224 259.31,77.224 C269.065,77.222 278.113,75.792 287.912,74.249 L287.915,74.249 C295.346,73.07 302.15,72.324 308.897,72.325 C315.053,72.326 321.17,72.941 327.734,74.434 C333.04,75.638 338.274,77.615 343.753,79.567 C349.23,81.513 354.958,83.433 361.252,84.371 L361.717,81.243 L360.087,78.534 C357.963,79.819 354.98,80.856 351.502,81.63 C346.281,82.803 339.984,83.412 333.728,83.963 C327.462,84.522 321.245,85.019 315.959,86.1 C314.773,86.344 313.831,87.242 313.532,88.414 C313.232,89.586 313.627,90.826 314.549,91.609 C319.705,95.978 325.787,99.883 331.92,103.703 C338.051,107.518 344.235,111.244 349.549,115.129 L351.414,112.576 L351.708,109.428 C333.591,107.738 312.209,105.918 293.591,103.37 C292.512,103.222 291.423,103.646 290.728,104.484 C290.033,105.322 289.818,106.47 290.163,107.503 C290.338,108.027 290.603,108.948 290.882,110.085 C291.729,113.504 292.726,119.005 292.718,123.519 C292.724,125.601 292.496,127.467 292.087,128.689 C291.888,129.302 291.652,129.742 291.452,130.004 C291.246,130.27 291.107,130.363 290.954,130.436 L290.959,130.434 L291.174,130.913 L291.024,130.409 L290.959,130.434 L291.174,130.913 L291.024,130.409 L291.021,130.409 C290.996,130.415 290.9,130.43 290.743,130.429 C290.339,130.434 289.563,130.322 288.61,130.05 C286.932,129.581 284.71,128.663 282.345,127.519 C278.787,125.802 274.873,123.587 271.481,121.621 C269.782,120.637 268.212,119.715 266.86,118.941 C265.501,118.163 264.39,117.543 263.467,117.107 C259.293,115.145 256.176,113.502 253.283,112.27 C251.836,111.655 250.439,111.144 249.002,110.783 C247.567,110.421 246.092,110.218 244.564,110.219 C242.769,110.218 240.921,110.496 238.943,111.032 C236.962,111.569 234.841,112.359 232.411,113.418 L232.405,113.421 C228.353,115.198 223.911,117.154 219.58,119.352 C215.248,121.553 211.026,123.99 207.384,126.796 L209.314,129.3 L212.449,129.714 C214.306,115.683 218.444,104.123 224.288,91.723 C224.674,90.906 224.692,89.972 224.34,89.14 C223.987,88.308 223.303,87.673 222.448,87.381 C215.265,84.939 205.386,82.804 195.241,81.241 C185.098,79.684 174.747,78.715 166.665,78.713 C165.943,78.713 165.238,78.72 164.551,78.737 L164.627,81.898 L165.439,84.953 C178.896,81.376 193.68,79.278 208.409,79.279 C212.778,79.279 217.143,79.463 221.467,79.847 C223.206,80.001 224.741,78.716 224.895,76.977 C225.05,75.238 223.765,73.703 222.026,73.548 C217.506,73.147 212.956,72.955 208.409,72.955 C193.081,72.957 177.787,75.129 163.815,78.842 C162.266,79.254 161.27,80.758 161.497,82.345 C161.724,83.931 163.1,85.097 164.703,85.059 C165.333,85.043 165.988,85.036 166.665,85.036 C174.252,85.034 184.4,85.97 194.28,87.491 C204.158,89.006 213.826,91.121 220.409,93.367 L221.429,90.374 L218.569,89.026 C212.567,101.742 208.131,114.07 206.18,128.886 C206.012,130.154 206.628,131.402 207.736,132.04 C208.844,132.678 210.233,132.585 211.245,131.804 C214.409,129.361 218.319,127.082 222.442,124.99 C226.566,122.897 230.901,120.985 234.944,119.212 L234.939,119.215 C237.185,118.234 239.036,117.557 240.595,117.136 C242.158,116.714 243.416,116.543 244.564,116.542 C245.544,116.543 246.458,116.665 247.462,116.916 C248.961,117.29 250.671,117.984 252.823,118.995 C254.974,120.003 257.552,121.312 260.776,122.83 C261.208,123.032 261.94,123.422 262.83,123.924 C264.395,124.804 266.481,126.036 268.806,127.379 C272.298,129.396 276.33,131.668 280.143,133.475 C282.052,134.379 283.906,135.168 285.659,135.755 C287.42,136.334 289.053,136.741 290.743,136.753 C291.636,136.75 292.579,136.633 293.549,136.203 L293.554,136.201 C294.767,135.657 295.765,134.79 296.495,133.819 C297.596,132.35 298.18,130.685 298.548,128.956 C298.909,127.221 299.04,125.392 299.042,123.519 C299.039,119.93 298.549,116.178 297.956,112.941 C297.658,111.323 297.333,109.839 297.023,108.576 C296.711,107.309 296.419,106.277 296.161,105.501 L293.162,106.502 L292.733,109.635 C311.586,112.214 333.036,114.036 351.12,115.725 C352.537,115.857 353.867,115.027 354.371,113.696 C354.875,112.366 354.428,110.863 353.279,110.024 C347.641,105.905 341.34,102.12 335.261,98.335 C329.185,94.555 323.333,90.771 318.64,86.786 L316.595,89.198 L317.231,92.295 C320.361,91.651 324.111,91.204 328.117,90.82 C334.131,90.239 340.719,89.794 346.883,88.89 C349.967,88.437 352.948,87.868 355.724,87.088 C358.5,86.304 361.077,85.315 363.346,83.953 C364.492,83.264 365.079,81.936 364.817,80.625 C364.556,79.314 363.504,78.313 362.182,78.116 C356.59,77.286 351.269,75.531 345.872,73.609 C340.477,71.693 335.013,69.608 329.137,68.268 C322.108,66.667 315.477,66 308.897,66.001 C301.681,66.002 294.534,66.797 286.925,68.003 L286.928,68.003 C277.12,69.551 268.431,70.902 259.31,70.9 C255.575,70.9 251.763,70.676 247.752,70.145 C245.04,69.784 242.63,69.627 240.437,69.627 C235.105,69.621 231.071,70.582 227.284,71.583 C223.478,72.586 219.89,73.617 214.762,74.091 C213.023,74.251 211.743,75.79 211.903,77.529 C212.063,79.268 213.602,80.548 215.341,80.388" fill="#4E6D3E"/>
    <path d="M281.136,68.011 C251.009,72.645 205.389,65.716 185.672,41.942 C189.012,55.555 194.842,65.296 209.905,73.773 C192.962,74.642 175.037,78.055 158.382,78.421 C173.816,78.079 200.809,81.981 215.193,86.824 C209.29,99.154 205.047,110.887 203.167,125.062 C209.974,119.91 219.388,115.814 227.508,112.347 C240.12,106.947 242.483,109.73 255.936,115.975 C260.877,118.255 280.911,131.409 286.082,129.134 C292.752,126.18 288.416,107.117 286.946,102.782 C305.701,105.335 327.117,107.137 345.198,108.836 C334.246,100.96 320.223,94.036 310.335,85.819 C323.626,83.162 345.13,84.139 355.452,78.07 C351.463,80.418 331.36,71.741 327.913,70.296 C333.382,62.288 347.991,50.013 347.22,39.647 C329.271,57.855 306.521,64.119 281.136,68.011" fill="#3D9145"/>
    <path d="M245.975,78.167 C245.975,62.62 250.667,46.424 255.022,31.517 C257.566,22.84 275.354,0.076 287.742,6.043 C290.55,7.391 296.067,12.235 297.967,14.437 C301.648,18.631 303.479,17.557 298.831,22.669 C295.291,26.585 288.372,28.446 284.021,31.903 C278.074,36.619 273.011,42.44 271.521,49.564 C269.705,58.026 275.193,70.57 269.681,78.011 C263.489,86.37 244.656,83.944 245.066,73.28" fill="#3D9145"/>
    <g>
      <path d="M458.963,117.279 C444.471,105.277 424.08,90.394 403.68,81.917 C415.32,89.188 426.121,97.406 434.783,104.583 C482.425,144.027 486.556,202.669 486.556,262.884 C486.556,383.324 387.352,474.393 239.397,474.393 C193.23,474.393 148.899,470.472 112.4,453.739 C153.826,478.245 204.866,492.655 261.648,492.655 C409.603,492.655 519.061,395.018 519.061,274.588 C519.061,214.364 506.585,156.707 458.963,117.279" fill="#B2282D"/>
      <path d="M58.592,336.888 C58.592,336.888 -38.342,172.406 179.007,112.196 C179.007,112.196 29.212,173.88 58.592,336.888" fill="#E36931"/>
    </g>
    <path d="M58.592,336.888 L60.32,335.87 L60.309,335.85 C60.027,335.37 54.699,326.161 49.454,311.613 C44.206,297.065 39.05,277.184 39.053,255.374 C39.053,242.953 40.721,229.908 44.98,216.836 C51.375,197.23 63.576,177.546 84.891,159.733 C106.206,141.926 136.668,126.005 179.542,114.128 L179.007,112.196 L178.243,110.341 C178.104,110.403 146.849,123.273 115.513,152.848 C99.848,167.637 84.163,186.613 72.389,210.262 C60.614,233.908 52.765,262.231 52.767,295.61 C52.767,308.703 53.974,322.573 56.618,337.244 L58.592,336.888 L60.32,335.87 L58.592,336.888 L60.566,336.532 C57.962,322.086 56.779,308.457 56.779,295.61 C56.781,262.861 64.461,235.193 75.98,212.05 C93.256,177.341 119.219,152.813 140.882,136.976 C151.711,129.058 161.459,123.315 168.488,119.557 C172.001,117.679 174.835,116.296 176.784,115.387 C177.759,114.932 178.512,114.595 179.018,114.373 C179.271,114.262 179.463,114.18 179.589,114.126 L179.73,114.067 L179.771,114.05 C180.75,113.647 181.248,112.547 180.904,111.545 C180.56,110.543 179.492,109.98 178.471,110.263 C120.762,126.247 84.863,149.623 63.402,175.539 C52.675,188.492 45.573,202.067 41.166,215.594 C36.758,229.121 35.041,242.595 35.041,255.374 C35.044,278.173 40.495,298.764 45.935,313.677 C51.378,328.589 56.818,337.828 56.864,337.906 C57.356,338.741 58.382,339.105 59.29,338.768 C60.198,338.431 60.738,337.485 60.566,336.532 L58.592,336.888" fill="#E36931"/>
  </g>
</svg>
